<svg id="Layer_1" data-name="Layer 1" xmlns="http://www.w3.org/2000/svg" viewBox="0 0 335 195"><title>ortex_logo_v-white</title><path d="M21.32606,152.80727A20.85278,20.85278,0,1,0,42.1786,173.6598,20.87626,20.87626,0,0,0,21.32606,152.80727Zm0,35.70557a14.85278,14.85278,0,1,1,14.85254-14.853A14.8698,14.8698,0,0,1,21.32606,188.51283Z" style="fill:rgb(55, 170, 166)"/><path d="M102.46229,177.74184c4.95117-2.07629,8.40088-6.605,8.40088-11.85937,0-7.20947-6.48047-13.0752-14.44629-13.0752H80.97059a2.99984,2.99984,0,0,0-3,3v35.78125a3,3,0,0,0,6,0V178.95766H96.0995l9.24609,14.2627a3.00018,3.00018,0,0,0,5.03516-3.26367Zm-18.4917-18.93457H96.41688c4.65723,0,8.44629,3.17383,8.44629,7.0752s-3.78906,7.0752-8.44629,7.0752H83.97059Z" style="fill:rgb(55, 170, 166)"/><path d="M184.52821,152.80727h-34.041a3,3,0,0,0,0,6H164.5077v32.78125a3,3,0,0,0,6,0V158.80727h14.02051a3,3,0,0,0,0-6Z" style="fill:rgb(55, 170, 166)"/><path d="M252.92079,158.80727a3,3,0,0,0,0-6H228.27625a2.99984,2.99984,0,0,0-3,3v35.78125a2.99984,2.99984,0,0,0,3,3h24.64453a3,3,0,0,0,0-6H231.27625V176.69789H248.6659a3,3,0,0,0,0-6H231.27625V158.80727Z" style="fill:rgb(55, 170, 166)"/><path d="M317.932,173.64467l15.71631-15.71631a2.99968,2.99968,0,0,0-4.24219-4.24219l-15.71631,15.71631-15.71631-15.71631a2.99968,2.99968,0,0,0-4.24219,4.24219l15.71631,15.71631L293.73133,189.361a2.99968,2.99968,0,1,0,4.24219,4.24219l15.71631-15.71631,15.71631,15.71631a2.99968,2.99968,0,0,0,4.24219-4.24219Z" style="fill:rgb(55, 170, 166)"/><path d="M148.56894,41.46584c-17.48887,4.63844-29.76276,15.50883-29.76276,28.17964,0,14.69935,16.52065,26.9716,38.53661,29.90593Z" style="fill:rgb(55, 170, 166)"/><path d="M184.73882,41.047,175.8697,99.76312c22.90232-2.4927,40.32412-15.02343,40.32412-30.11746C216.19382,56.571,203.12094,45.41869,184.73882,41.047Z" style="fill:rgb(55, 170, 166)"/><path d="M167.618-.30952A17.96253,17.96253,0,1,0,185.4703,17.778,17.99081,17.99081,0,0,0,167.618-.30952Z" style="fill:rgb(55, 170, 166)"/></svg>