<svg width="8" height="8" viewBox="0 0 8 8" fill="none" xmlns="http://www.w3.org/2000/svg">
<path d="M0.65 7.35C0.696481 7.39686 0.751782 7.43406 0.812712 7.45944C0.873641 7.48483 0.938994 7.4979 1.005 7.4979C1.07101 7.4979 1.13636 7.48483 1.19729 7.45944C1.25822 7.43406 1.31352 7.39686 1.36 7.35L4 4.71L6.65 7.36C6.74415 7.45415 6.87185 7.50704 7.005 7.50704C7.13815 7.50704 7.26585 7.45415 7.36 7.36C7.45415 7.26584 7.50705 7.13815 7.50705 7.005C7.50705 6.87185 7.45415 6.74415 7.36 6.65L4.71 4L7.36 1.35C7.45415 1.25584 7.50705 1.12815 7.50705 0.994996C7.50705 0.861845 7.45415 0.734148 7.36 0.639997C7.26585 0.545845 7.13815 0.49295 7.005 0.49295C6.87185 0.49295 6.74415 0.545845 6.65 0.639997L4 3.29L1.35 0.649996C1.25585 0.555844 1.12815 0.502951 0.995 0.502951C0.861849 0.502951 0.734152 0.555844 0.64 0.649996C0.545848 0.744148 0.492954 0.871845 0.492954 1.005C0.492954 1.13815 0.545848 1.26584 0.64 1.36L3.29 4L0.65 6.65C0.558386 6.74346 0.507071 6.86912 0.507071 7C0.507071 7.13087 0.558386 7.25653 0.65 7.35V7.35Z" fill="white"/>
</svg>
